<svg aria-hidden="true" style="position: absolute; width: 0; height: 0; overflow: hidden;" version="1.1" xmlns="http://www.w3.org/2000/svg" xmlns:xlink="http://www.w3.org/1999/xlink">
<defs>
<symbol id="icon-edit" viewBox="0 0 39 32">
<path fill="none" stroke="#9ebbff" style="stroke: var(--color1, #9ebbff)" stroke-linejoin="round" stroke-linecap="round" stroke-miterlimit="4" stroke-width="2.4615" d="M27.671-0.021l2.768-2.77c0.577-0.577 1.36-0.901 2.176-0.901s1.599 0.324 2.176 0.901c0.577 0.577 0.901 1.36 0.901 2.176s-0.324 1.599-0.901 2.176l-17.426 17.426c-0.868 0.867-1.937 1.504-3.113 1.854l-4.406 1.313 1.313-4.406c0.35-1.176 0.987-2.245 1.854-3.113l14.658-14.656zM27.671-0.021l4.329 4.329M29.538 15.59v7.795c0 0.979-0.389 1.919-1.081 2.611s-1.632 1.081-2.611 1.081h-17.231c-0.979 0-1.918-0.389-2.611-1.081s-1.081-1.632-1.081-2.611v-17.231c0-0.979 0.389-1.918 1.081-2.611s1.632-1.081 2.611-1.081h7.795"></path>
</symbol>
<symbol id="icon-delete" viewBox="0 0 39 32">
<path fill="none" stroke="#ef5050" style="stroke: var(--color2, #ef5050)" stroke-linejoin="round" stroke-linecap="round" stroke-miterlimit="4" stroke-width="2.4615" d="M24.189 7.385l-0.568 14.769M15.764 22.154l-0.568-14.769M31.554 2.117c0.561 0.085 1.119 0.176 1.677 0.272M31.554 2.117l-1.753 22.782c-0.072 0.927-0.491 1.794-1.173 2.426s-1.579 0.983-2.509 0.983h-12.853c-0.93 0-1.826-0.351-2.509-0.983s-1.102-1.498-1.173-2.426l-1.753-22.782M31.554 2.117c-1.894-0.286-3.798-0.504-5.708-0.651M7.831 2.117c-0.561 0.084-1.119 0.174-1.677 0.271M7.831 2.117c1.894-0.286 3.798-0.504 5.707-0.651M25.846 1.465v-1.503c0-1.936-1.493-3.551-3.43-3.612-1.816-0.058-3.633-0.058-5.448 0-1.936 0.061-3.43 1.677-3.43 3.612v1.503M25.846 1.465c-4.096-0.317-8.211-0.317-12.308 0"></path>
</symbol>
</defs>
</svg>
